<svg width="136" height="141" viewBox="0 0 136 141" fill="none" xmlns="http://www.w3.org/2000/svg">
<g clip-path="url(#clip0_3_2)">
<path d="M0 70.5C0 89.1978 7.16427 107.13 19.9167 120.351C32.6692 133.572 49.9653 141 68 141C86.0347 141 103.331 133.572 116.083 120.351C128.836 107.13 136 89.1978 136 70.5C136 51.8022 128.836 33.8703 116.083 20.649C103.331 7.42766 86.0347 0 68 0C49.9653 0 32.6692 7.42766 19.9167 20.649C7.16427 33.8703 0 51.8022 0 70.5Z" fill="#FAD97F"/>
<path d="M53 43.64V47.96H62.32V43.64H53ZM50.4 33.08V37.52H60.52V49.32H65.16V33.08H50.4ZM50.4 43.64V55.96C50.4 60.68 51.64 62 56.04 62C56.96 62 60.28 62 61.24 62C64.88 62 66.16 60.56 66.72 55.12C65.4 54.8 63.4 54.04 62.44 53.28C62.28 56.92 62.04 57.48 60.8 57.48C60 57.48 57.36 57.48 56.72 57.48C55.28 57.48 55.04 57.32 55.04 55.88V43.64H50.4ZM70.16 37.04V41.6H86.8V37.04H70.16ZM70.48 30.08C69.24 36.6 66.8 42.84 63.24 46.56C64.44 47.28 66.56 48.8 67.48 49.64C71.08 45.32 73.88 38.36 75.48 30.96L70.48 30.08ZM79.2 39C77.64 52.08 73.36 59.64 62.56 63.52C63.48 64.56 64.96 66.68 65.44 67.8C77.04 62.92 82.04 54.28 84.08 39.52L79.2 39ZM72.32 40.64L67.92 41.4C70.32 53.8 74.6 63 84.08 67.52C84.8 66.2 86.32 64.24 87.4 63.28C78.6 59.64 74.28 51.2 72.32 40.64ZM57.36 110.72V114.4H78.44V110.72H57.36ZM55.2 104.32V115.6H59.92V107.96H75.96V115.48H80.88V104.32H55.2ZM52.2 82.28V85.76H83.8V82.28H52.2ZM51.08 92.24V95.72H85V92.24H51.08ZM54.84 87.28V90.64H81.2V87.28H54.84ZM49.8 99.16V102.84H86.24V99.16H49.8ZM65.4 83.96V100.68H70.36V83.96H65.4ZM57.28 79.08C58.12 80.4 58.96 82.24 59.24 83.4L63.8 82.08C63.4 80.88 62.56 79.2 61.64 77.96L57.28 79.08ZM55.44 96.12C56.16 97.28 56.92 98.92 57.12 100L61.76 98.84C61.44 97.8 60.68 96.28 59.88 95.16L55.44 96.12ZM73.88 77.92C73.48 79.2 72.6 80.96 71.92 82.24L76.28 83.04C77.04 81.96 78 80.48 78.96 78.76L73.88 77.92ZM75.92 95.2C75.52 96.28 74.8 97.8 74.24 98.88L78.72 99.6C79.32 98.68 80 97.44 80.84 95.92L75.92 95.2Z" fill="white"/>
<g clip-path="url(#clip1_3_2)">
<path d="M77.1462 91.6022C62.6537 91.6022 53.8861 84.4955 48.5755 76.1718C46.9465 77.0394 45.1349 77.5341 43.2087 77.5341C39.6137 77.5341 36.1544 75.8459 33.7202 72.9033C32.2785 71.1612 29.856 68.2233 28.1077 64.7509C29.3037 85.1661 40.8026 105.67 70.1246 105.67C80.9097 105.67 90.1571 101.776 96.8627 94.4065C103.096 87.5576 106.857 77.8506 107.61 67.3933C101.605 81.2106 93.3332 91.6022 77.1462 91.6022Z" fill="#4968D5" fill-opacity="0.98"/>
<path d="M46.9534 59.9489C46.9534 62.929 45.8042 63.8177 44.3789 63.8177C42.9535 63.8177 41.8043 62.929 41.8043 59.9489C41.8043 56.9712 42.9535 56.0802 44.3789 56.0802C45.8042 56.0802 46.9534 56.9712 46.9534 59.9489ZM107.636 60.1928C108.448 73.3136 104.507 86.0054 96.8603 94.4065C90.1571 101.776 80.9097 105.67 70.1246 105.67C54.6678 105.67 44.1659 99.9681 37.5095 91.5905C37.4229 92.1116 37.372 92.638 37.3573 93.1661C37.3573 96.0595 38.0618 97.2013 39.0378 98.7793C40.3742 100.941 42.0384 103.633 42.0384 110.36H37.3573C37.3573 104.967 36.2409 103.162 35.0589 101.248C33.9425 99.4429 32.6763 97.3959 32.6763 93.1661C32.6763 91.1825 33.4416 87.7851 33.8629 86.0617C29.767 78.5517 27.9952 69.7192 27.9952 61.1213V53.5807C26.4597 53.9302 24.8888 54.1001 23.3142 54.0872L23.3142 49.3978C30.2234 49.3978 32.6763 47.2735 32.6763 35.3297H37.3573C37.3573 36.9639 37.3035 38.4997 37.1888 39.9487C42.8294 39.6158 44.9476 37.9815 47.3303 36.1105C50.5953 33.5454 54.2933 30.6403 65.4435 30.6403V35.3297C55.9083 35.3297 53.1465 37.5009 50.2208 39.7987C49.2729 40.5419 48.3156 41.2969 47.1781 41.9816C58.113 45.4611 63.756 52.9125 68.8818 59.6769C74.4592 67.0322 78.8594 72.8447 88.8487 72.8447C95.2781 72.8447 99.6408 67.527 101.64 63.1846C100.762 63.3675 99.8515 63.466 98.92 63.466C92.3829 63.466 89.0804 60.2959 86.4263 57.7496C84.2121 55.623 82.6089 54.0872 79.4866 54.0872V49.3978C84.4907 49.3978 87.2408 52.0356 89.6656 54.3639C92.1301 56.732 94.2623 58.7766 98.92 58.7766C101.214 58.7747 103.414 57.8608 105.036 56.2356C106.659 54.6104 107.571 52.4067 107.573 50.1083C107.573 46.4412 106.639 44.3919 105.555 42.0191C104.305 39.2852 102.892 36.1879 102.892 30.6403H107.573C107.573 35.1656 108.661 37.5478 109.81 40.0683C111.013 42.6991 112.254 45.4212 112.254 50.1083C112.253 52.0229 111.84 53.9149 111.043 55.6552C110.246 57.3955 109.084 58.9432 107.636 60.1928ZM102.641 70.357C99.4817 74.2937 94.8475 77.5341 88.8487 77.5341C76.5352 77.5341 70.7518 69.8974 65.1533 62.5117C58.9392 54.3099 52.4911 45.8597 36.4562 44.8093C35.7587 47.5877 34.5698 49.7988 32.6763 51.3721V61.1213C32.6763 65.2034 33.1491 69.3347 34.1087 73.3277C36.5147 75.9983 39.7961 77.5341 43.2086 77.5341C50.1248 77.5341 55.6578 71.3488 56.0838 63.1494C56.1634 61.623 56.1213 60.1318 56.0206 58.6664C57.6449 60.4272 59.1452 62.3475 60.6689 64.3499C59.7233 74.6009 52.3717 82.2235 43.2086 82.2235C40.9451 82.2153 38.7079 81.7362 36.6388 80.8167C41.7364 92.2306 52.1424 100.981 70.1246 100.981C79.6926 100.981 87.5263 97.7078 93.401 91.2505C98.2857 85.8835 101.492 78.4907 102.641 70.357ZM102.466 50.3662L92.1301 37.5689L88.4906 40.5185L98.8263 53.3158L102.466 50.3662Z" fill="#231F20"/>
</g>
</g>
<defs>
<clipPath id="clip0_3_2">
<rect width="136" height="141" fill="white"/>
</clipPath>
<clipPath id="clip1_3_2">
<rect width="88.9397" height="89.0982" fill="white" transform="translate(23.3142 25.9509)"/>
</clipPath>
</defs>
</svg>
